<svg xmlns="http://www.w3.org/2000/svg" width="48" height="48" viewBox="0 0 48 48" fill="none">
  <rect width="48" height="48" rx="12" fill="#0b0d10"/>
  <path d="M14 13c-3 0-4 1.5-4 4.5v3c0 2-1 3-2.5 3.5C9 24.5 10 25.5 10 27.5v3c0 3 1 4.5 4 4.5" stroke="#f5a623" stroke-width="2.6" stroke-linecap="round" stroke-linejoin="round"/>
  <path d="M34 13c3 0 4 1.5 4 4.5v3c0 2 1 3 2.5 3.5C39 24.5 38 25.5 38 27.5v3c0 3-1 4.5-4 4.5" stroke="#f5a623" stroke-width="2.6" stroke-linecap="round" stroke-linejoin="round"/>
  <circle cx="24" cy="24" r="2.4" fill="#f5a623"/>
</svg>
